<?xml version="1.0" standalone="no"?>
<!DOCTYPE svg PUBLIC "-//W3C//DTD SVG 20010904//EN"
 "http://www.w3.org/TR/2001/REC-SVG-20010904/DTD/svg10.dtd">
<svg version="1.0" xmlns="http://www.w3.org/2000/svg"
 width="512.000000pt" height="512.000000pt" viewBox="0 0 512.000000 512.000000"
 preserveAspectRatio="xMidYMid meet">
<metadata>
Created by potrace 1.14, written by Peter Selinger 2001-2017
</metadata>
<g transform="translate(0.000000,512.000000) scale(0.100000,-0.100000)"
fill="#000000" stroke="none">
<path d="M746 5033 c-1 -1 -142 -3 -313 -3 l-311 -1 -41 -27 c-77 -50 -80 -64
-81 -401 0 -169 4 -311 10 -330 5 -19 22 -48 37 -64 53 -54 70 -57 381 -57
157 0 283 -2 281 -4 -2 -2 -25 -7 -51 -10 -26 -4 -79 -17 -118 -30 -265 -90
-466 -318 -524 -596 -21 -100 -15 -269 14 -368 81 -286 313 -503 605 -565 l70
-15 -102 -1 c-140 -1 -189 -23 -235 -103 -17 -31 -21 -966 -4 -1015 15 -44 50
-81 95 -102 38 -17 37 -17 -143 -17 -174 0 -184 -2 -225 -25 -29 -16 -51 -39
-67 -69 l-24 -45 0 -470 c0 -278 4 -485 10 -505 11 -41 61 -94 104 -110 33
-12 4471 -16 4523 -4 39 9 90 49 110 87 16 29 18 77 19 512 2 436 0 484 -16
520 -18 44 -71 95 -97 95 -9 0 -13 3 -9 7 4 4 82 8 174 9 92 0 179 6 193 12
41 17 88 70 99 113 7 26 10 201 8 517 l-3 479 -29 37 c-54 71 -76 75 -376 77
-146 1 -256 4 -245 6 35 9 85 53 106 95 51 100 -12 224 -125 248 l-31 6 -1
429 c0 237 1 436 4 443 2 6 14 12 26 12 38 0 102 50 126 98 44 87 6 192 -84
233 l-41 19 88 0 c48 0 88 -1 90 -1 1 -1 21 8 44 20 25 12 55 39 70 63 l28 42
1 305 c1 247 -2 312 -13 341 -20 46 -40 68 -86 91 -37 19 -84 20 -1978 22
-1067 1 -1942 1 -1943 0z"/>
</g>
</svg>
